<svg id="visual" viewBox="0 0 900 600" width="900" height="600" xmlns="http://www.w3.org/2000/svg" xmlns:xlink="http://www.w3.org/1999/xlink" version="1.1"><rect x="0" y="0" width="900" height="600" fill="#001220"></rect><defs><linearGradient id="grad1_0" x1="33.3%" y1="100%" x2="100%" y2="0%"><stop offset="20%" stop-color="#fbae3c" stop-opacity="1"></stop><stop offset="80%" stop-color="#fbae3c" stop-opacity="1"></stop></linearGradient></defs><defs><linearGradient id="grad1_1" x1="33.3%" y1="100%" x2="100%" y2="0%"><stop offset="20%" stop-color="#fbae3c" stop-opacity="1"></stop><stop offset="80%" stop-color="#f48350" stop-opacity="1"></stop></linearGradient></defs><defs><linearGradient id="grad1_2" x1="33.3%" y1="100%" x2="100%" y2="0%"><stop offset="20%" stop-color="#d96162" stop-opacity="1"></stop><stop offset="80%" stop-color="#f48350" stop-opacity="1"></stop></linearGradient></defs><defs><linearGradient id="grad1_3" x1="33.3%" y1="100%" x2="100%" y2="0%"><stop offset="20%" stop-color="#d96162" stop-opacity="1"></stop><stop offset="80%" stop-color="#af4b6d" stop-opacity="1"></stop></linearGradient></defs><defs><linearGradient id="grad1_4" x1="33.3%" y1="100%" x2="100%" y2="0%"><stop offset="20%" stop-color="#7c3e6b" stop-opacity="1"></stop><stop offset="80%" stop-color="#af4b6d" stop-opacity="1"></stop></linearGradient></defs><defs><linearGradient id="grad1_5" x1="33.3%" y1="100%" x2="100%" y2="0%"><stop offset="20%" stop-color="#7c3e6b" stop-opacity="1"></stop><stop offset="80%" stop-color="#49335c" stop-opacity="1"></stop></linearGradient></defs><defs><linearGradient id="grad1_6" x1="33.3%" y1="100%" x2="100%" y2="0%"><stop offset="20%" stop-color="#1d2540" stop-opacity="1"></stop><stop offset="80%" stop-color="#49335c" stop-opacity="1"></stop></linearGradient></defs><defs><linearGradient id="grad1_7" x1="33.3%" y1="100%" x2="100%" y2="0%"><stop offset="20%" stop-color="#1d2540" stop-opacity="1"></stop><stop offset="80%" stop-color="#001220" stop-opacity="1"></stop></linearGradient></defs><defs><linearGradient id="grad2_0" x1="0%" y1="100%" x2="66.7%" y2="0%"><stop offset="20%" stop-color="#fbae3c" stop-opacity="1"></stop><stop offset="80%" stop-color="#fbae3c" stop-opacity="1"></stop></linearGradient></defs><defs><linearGradient id="grad2_1" x1="0%" y1="100%" x2="66.7%" y2="0%"><stop offset="20%" stop-color="#f48350" stop-opacity="1"></stop><stop offset="80%" stop-color="#fbae3c" stop-opacity="1"></stop></linearGradient></defs><defs><linearGradient id="grad2_2" x1="0%" y1="100%" x2="66.7%" y2="0%"><stop offset="20%" stop-color="#f48350" stop-opacity="1"></stop><stop offset="80%" stop-color="#d96162" stop-opacity="1"></stop></linearGradient></defs><defs><linearGradient id="grad2_3" x1="0%" y1="100%" x2="66.7%" y2="0%"><stop offset="20%" stop-color="#af4b6d" stop-opacity="1"></stop><stop offset="80%" stop-color="#d96162" stop-opacity="1"></stop></linearGradient></defs><defs><linearGradient id="grad2_4" x1="0%" y1="100%" x2="66.7%" y2="0%"><stop offset="20%" stop-color="#af4b6d" stop-opacity="1"></stop><stop offset="80%" stop-color="#7c3e6b" stop-opacity="1"></stop></linearGradient></defs><defs><linearGradient id="grad2_5" x1="0%" y1="100%" x2="66.7%" y2="0%"><stop offset="20%" stop-color="#49335c" stop-opacity="1"></stop><stop offset="80%" stop-color="#7c3e6b" stop-opacity="1"></stop></linearGradient></defs><defs><linearGradient id="grad2_6" x1="0%" y1="100%" x2="66.7%" y2="0%"><stop offset="20%" stop-color="#49335c" stop-opacity="1"></stop><stop offset="80%" stop-color="#1d2540" stop-opacity="1"></stop></linearGradient></defs><defs><linearGradient id="grad2_7" x1="0%" y1="100%" x2="66.7%" y2="0%"><stop offset="20%" stop-color="#001220" stop-opacity="1"></stop><stop offset="80%" stop-color="#1d2540" stop-opacity="1"></stop></linearGradient></defs><g transform="translate(900, 600)"><path d="M-405.6 0C-384.7 -20.8 -363.7 -41.6 -356.5 -62.9C-349.3 -84.1 -355.9 -105.9 -359.9 -131C-363.9 -156 -365.3 -184.4 -351.3 -202.8C-337.3 -221.3 -308 -229.8 -283.4 -237.8C-258.9 -245.8 -239.2 -253.2 -224.3 -267.3C-209.5 -281.5 -199.6 -302.4 -185.5 -321.3C-171.4 -340.2 -153.2 -357.2 -132.4 -363.7C-111.5 -370.1 -88 -366 -65.5 -371.3C-43 -376.5 -21.5 -391.1 0 -405.6L0 0Z" fill="#0c1c30"></path><path d="M-354.9 0C-336.6 -18.2 -318.2 -36.4 -311.9 -55C-305.7 -73.6 -311.4 -92.7 -314.9 -114.6C-318.4 -136.5 -319.6 -161.3 -307.4 -177.5C-295.1 -193.6 -269.5 -201.1 -248 -208.1C-226.5 -215.1 -209.3 -221.6 -196.3 -233.9C-183.3 -246.3 -174.6 -264.6 -162.3 -281.1C-150 -297.7 -134.1 -312.6 -115.8 -318.2C-97.6 -323.8 -77 -320.3 -57.3 -324.9C-37.6 -329.4 -18.8 -342.2 0 -354.9L0 0Z" fill="#312c4f"></path><path d="M-304.2 0C-288.5 -15.6 -272.8 -31.2 -267.4 -47.1C-262 -63.1 -266.9 -79.5 -269.9 -98.2C-272.9 -117 -273.9 -138.3 -263.5 -152.1C-253 -165.9 -231 -172.4 -212.6 -178.4C-194.2 -184.4 -179.4 -189.9 -168.2 -200.5C-157.1 -211.1 -149.7 -226.8 -139.1 -241C-128.6 -255.2 -114.9 -267.9 -99.3 -272.7C-83.6 -277.6 -66 -274.5 -49.1 -278.5C-32.2 -282.4 -16.1 -293.3 0 -304.2L0 0Z" fill="#623965"></path><path d="M-253.5 0C-240.4 -13 -227.3 -26 -222.8 -39.3C-218.3 -52.6 -222.4 -66.2 -224.9 -81.9C-227.4 -97.5 -228.3 -115.2 -219.6 -126.8C-210.8 -138.3 -192.5 -143.7 -177.1 -148.6C-161.8 -153.6 -149.5 -158.3 -140.2 -167.1C-130.9 -175.9 -124.7 -189 -115.9 -200.8C-107.1 -212.6 -95.8 -223.3 -82.7 -227.3C-69.7 -231.3 -55 -228.8 -40.9 -232C-26.9 -235.3 -13.4 -244.4 0 -253.5L0 0Z" fill="#96446e"></path><path d="M-202.8 0C-192.3 -10.4 -181.8 -20.8 -178.3 -31.4C-174.7 -42.1 -178 -53 -180 -65.5C-181.9 -78 -182.6 -92.2 -175.6 -101.4C-168.7 -110.6 -154 -114.9 -141.7 -118.9C-129.5 -122.9 -119.6 -126.6 -112.2 -133.7C-104.7 -140.7 -99.8 -151.2 -92.8 -160.6C-85.7 -170.1 -76.6 -178.6 -66.2 -181.8C-55.7 -185.1 -44 -183 -32.7 -185.6C-21.5 -188.3 -10.7 -195.5 0 -202.8L0 0Z" fill="#c55469"></path><path d="M-152.1 0C-144.2 -7.8 -136.4 -15.6 -133.7 -23.6C-131 -31.6 -133.5 -39.7 -135 -49.1C-136.5 -58.5 -137 -69.1 -131.7 -76.1C-126.5 -83 -115.5 -86.2 -106.3 -89.2C-97.1 -92.2 -89.7 -95 -84.1 -100.3C-78.6 -105.6 -74.8 -113.4 -69.6 -120.5C-64.3 -127.6 -57.5 -134 -49.6 -136.4C-41.8 -138.8 -33 -137.3 -24.5 -139.2C-16.1 -141.2 -8.1 -146.7 0 -152.1L0 0Z" fill="#e9705a"></path><path d="M-101.4 0C-96.2 -5.2 -90.9 -10.4 -89.1 -15.7C-87.3 -21 -89 -26.5 -90 -32.7C-91 -39 -91.3 -46.1 -87.8 -50.7C-84.3 -55.3 -77 -57.5 -70.9 -59.5C-64.7 -61.5 -59.8 -63.3 -56.1 -66.8C-52.4 -70.4 -49.9 -75.6 -46.4 -80.3C-42.9 -85.1 -38.3 -89.3 -33.1 -90.9C-27.9 -92.5 -22 -91.5 -16.4 -92.8C-10.7 -94.1 -5.4 -97.8 0 -101.4L0 0Z" fill="#fa9845"></path><path d="M-50.7 0C-48.1 -2.6 -45.5 -5.2 -44.6 -7.9C-43.7 -10.5 -44.5 -13.2 -45 -16.4C-45.5 -19.5 -45.7 -23 -43.9 -25.4C-42.2 -27.7 -38.5 -28.7 -35.4 -29.7C-32.4 -30.7 -29.9 -31.7 -28 -33.4C-26.2 -35.2 -24.9 -37.8 -23.2 -40.2C-21.4 -42.5 -19.2 -44.7 -16.5 -45.5C-13.9 -46.3 -11 -45.8 -8.2 -46.4C-5.4 -47.1 -2.7 -48.9 0 -50.7L0 0Z" fill="#fbae3c"></path></g><g transform="translate(0, 0)"><path d="M405.6 0C395.3 22.6 384.9 45.1 376.2 66.3C367.5 87.5 360.3 107.4 357.1 130C353.9 152.5 354.6 177.7 347.3 200.5C340 223.3 324.6 243.6 301.1 252.6C277.5 261.7 245.6 259.5 223.7 266.6C201.8 273.7 189.8 290 175 303.1C160.2 316.2 142.4 326 125.2 343.9C107.9 361.8 91.2 387.8 70.4 399.5C49.7 411.1 24.8 408.4 0 405.6L0 0Z" fill="#0c1c30"></path><path d="M354.9 0C345.9 19.7 336.8 39.5 329.2 58C321.5 76.6 315.3 94 312.4 113.7C309.6 133.5 310.3 155.5 303.9 175.4C297.5 195.4 284.1 213.1 263.4 221C242.8 229 214.9 227.1 195.7 233.3C176.6 239.5 166.1 253.8 153.1 265.2C140.1 276.7 124.6 285.3 109.5 300.9C94.5 316.6 79.8 339.4 61.6 349.5C43.5 359.7 21.7 357.3 0 354.9L0 0Z" fill="#312c4f"></path><path d="M304.2 0C296.5 16.9 288.7 33.8 282.1 49.8C275.6 65.7 270.2 80.6 267.8 97.5C265.4 114.4 265.9 133.3 260.5 150.4C255 167.4 243.5 182.7 225.8 189.5C208.1 196.3 184.2 194.6 167.8 199.9C151.3 205.3 142.4 217.5 131.3 227.3C120.1 237.1 106.8 244.5 93.9 257.9C81 271.4 68.4 290.9 52.8 299.6C37.2 308.3 18.6 306.3 0 304.2L0 0Z" fill="#623965"></path><path d="M253.5 0C247.1 14.1 240.6 28.2 235.1 41.5C229.7 54.7 225.2 67.1 223.2 81.2C221.2 95.3 221.6 111.1 217 125.3C212.5 139.5 202.9 152.2 188.2 157.9C173.4 163.5 153.5 162.2 139.8 166.6C126.1 171 118.7 181.3 109.4 189.4C100.1 197.6 89 203.8 78.2 215C67.5 226.1 57 242.4 44 249.7C31 256.9 15.5 255.2 0 253.5L0 0Z" fill="#96446e"></path><path d="M202.8 0C197.6 11.3 192.5 22.6 188.1 33.2C183.7 43.8 180.2 53.7 178.5 65C176.9 76.3 177.3 88.9 173.6 100.2C170 111.6 162.3 121.8 150.5 126.3C138.7 130.8 122.8 129.7 111.8 133.3C100.9 136.8 94.9 145 87.5 151.6C80.1 158.1 71.2 163 62.6 172C54 180.9 45.6 193.9 35.2 199.7C24.8 205.5 12.4 204.2 0 202.8L0 0Z" fill="#c55469"></path><path d="M152.1 0C148.2 8.5 144.4 16.9 141.1 24.9C137.8 32.8 135.1 40.3 133.9 48.7C132.7 57.2 133 66.7 130.2 75.2C127.5 83.7 121.7 91.3 112.9 94.7C104 98.1 92.1 97.3 83.9 100C75.7 102.6 71.2 108.8 65.6 113.7C60.1 118.6 53.4 122.3 46.9 129C40.5 135.7 34.2 145.4 26.4 149.8C18.6 154.2 9.3 153.1 0 152.1L0 0Z" fill="#e9705a"></path><path d="M101.4 0C98.8 5.6 96.2 11.3 94 16.6C91.9 21.9 90.1 26.9 89.3 32.5C88.5 38.1 88.6 44.4 86.8 50.1C85 55.8 81.2 60.9 75.3 63.2C69.4 65.4 61.4 64.9 55.9 66.6C50.4 68.4 47.5 72.5 43.8 75.8C40 79 35.6 81.5 31.3 86C27 90.5 22.8 97 17.6 99.9C12.4 102.8 6.2 102.1 0 101.4L0 0Z" fill="#fa9845"></path><path d="M50.7 0C49.4 2.8 48.1 5.6 47 8.3C45.9 10.9 45 13.4 44.6 16.2C44.2 19.1 44.3 22.2 43.4 25.1C42.5 27.9 40.6 30.4 37.6 31.6C34.7 32.7 30.7 32.4 28 33.3C25.2 34.2 23.7 36.3 21.9 37.9C20 39.5 17.8 40.8 15.6 43C13.5 45.2 11.4 48.5 8.8 49.9C6.2 51.4 3.1 51 0 50.7L0 0Z" fill="#fbae3c"></path></g></svg>