<svg id="visual" viewBox="0 0 540 960" width="540" height="960" xmlns="http://www.w3.org/2000/svg" xmlns:xlink="http://www.w3.org/1999/xlink" version="1.1"><rect x="0" y="0" width="540" height="960" fill="#001220"></rect><defs><linearGradient id="grad1_0" x1="0%" y1="100%" x2="100%" y2="0%"><stop offset="30%" stop-color="#fbae3c" stop-opacity="1"></stop><stop offset="70%" stop-color="#fbae3c" stop-opacity="1"></stop></linearGradient></defs><defs><linearGradient id="grad1_1" x1="0%" y1="100%" x2="100%" y2="0%"><stop offset="30%" stop-color="#fbae3c" stop-opacity="1"></stop><stop offset="70%" stop-color="#f48350" stop-opacity="1"></stop></linearGradient></defs><defs><linearGradient id="grad1_2" x1="0%" y1="100%" x2="100%" y2="0%"><stop offset="30%" stop-color="#d96162" stop-opacity="1"></stop><stop offset="70%" stop-color="#f48350" stop-opacity="1"></stop></linearGradient></defs><defs><linearGradient id="grad1_3" x1="0%" y1="100%" x2="100%" y2="0%"><stop offset="30%" stop-color="#d96162" stop-opacity="1"></stop><stop offset="70%" stop-color="#af4b6d" stop-opacity="1"></stop></linearGradient></defs><defs><linearGradient id="grad1_4" x1="0%" y1="100%" x2="100%" y2="0%"><stop offset="30%" stop-color="#7c3e6b" stop-opacity="1"></stop><stop offset="70%" stop-color="#af4b6d" stop-opacity="1"></stop></linearGradient></defs><defs><linearGradient id="grad1_5" x1="0%" y1="100%" x2="100%" y2="0%"><stop offset="30%" stop-color="#7c3e6b" stop-opacity="1"></stop><stop offset="70%" stop-color="#49335c" stop-opacity="1"></stop></linearGradient></defs><defs><linearGradient id="grad1_6" x1="0%" y1="100%" x2="100%" y2="0%"><stop offset="30%" stop-color="#1d2540" stop-opacity="1"></stop><stop offset="70%" stop-color="#49335c" stop-opacity="1"></stop></linearGradient></defs><defs><linearGradient id="grad1_7" x1="0%" y1="100%" x2="100%" y2="0%"><stop offset="30%" stop-color="#1d2540" stop-opacity="1"></stop><stop offset="70%" stop-color="#001220" stop-opacity="1"></stop></linearGradient></defs><defs><linearGradient id="grad2_0" x1="0%" y1="100%" x2="100%" y2="0%"><stop offset="30%" stop-color="#fbae3c" stop-opacity="1"></stop><stop offset="70%" stop-color="#fbae3c" stop-opacity="1"></stop></linearGradient></defs><defs><linearGradient id="grad2_1" x1="0%" y1="100%" x2="100%" y2="0%"><stop offset="30%" stop-color="#f48350" stop-opacity="1"></stop><stop offset="70%" stop-color="#fbae3c" stop-opacity="1"></stop></linearGradient></defs><defs><linearGradient id="grad2_2" x1="0%" y1="100%" x2="100%" y2="0%"><stop offset="30%" stop-color="#f48350" stop-opacity="1"></stop><stop offset="70%" stop-color="#d96162" stop-opacity="1"></stop></linearGradient></defs><defs><linearGradient id="grad2_3" x1="0%" y1="100%" x2="100%" y2="0%"><stop offset="30%" stop-color="#af4b6d" stop-opacity="1"></stop><stop offset="70%" stop-color="#d96162" stop-opacity="1"></stop></linearGradient></defs><defs><linearGradient id="grad2_4" x1="0%" y1="100%" x2="100%" y2="0%"><stop offset="30%" stop-color="#af4b6d" stop-opacity="1"></stop><stop offset="70%" stop-color="#7c3e6b" stop-opacity="1"></stop></linearGradient></defs><defs><linearGradient id="grad2_5" x1="0%" y1="100%" x2="100%" y2="0%"><stop offset="30%" stop-color="#49335c" stop-opacity="1"></stop><stop offset="70%" stop-color="#7c3e6b" stop-opacity="1"></stop></linearGradient></defs><defs><linearGradient id="grad2_6" x1="0%" y1="100%" x2="100%" y2="0%"><stop offset="30%" stop-color="#49335c" stop-opacity="1"></stop><stop offset="70%" stop-color="#1d2540" stop-opacity="1"></stop></linearGradient></defs><defs><linearGradient id="grad2_7" x1="0%" y1="100%" x2="100%" y2="0%"><stop offset="30%" stop-color="#001220" stop-opacity="1"></stop><stop offset="70%" stop-color="#1d2540" stop-opacity="1"></stop></linearGradient></defs><g transform="translate(540, 960)"><path d="M-405 0C-379.9 -19.2 -354.8 -38.5 -353.5 -62.3C-352.3 -86.2 -375 -114.7 -374 -136.1C-373 -157.5 -348.2 -171.9 -336.9 -194.5C-325.6 -217.1 -327.9 -248 -310.2 -260.3C-292.6 -272.7 -255.2 -266.4 -235.3 -280.4C-215.3 -294.3 -212.9 -328.5 -196.5 -340.3C-180.1 -352.2 -149.7 -341.8 -126.9 -348.6C-104.1 -355.5 -89 -379.7 -69.1 -392C-49.2 -404.2 -24.6 -404.6 0 -405L0 0Z" fill="#0c1c30"></path><path d="M-354.4 0C-332.4 -16.8 -310.4 -33.7 -309.4 -54.5C-308.3 -75.4 -328.2 -100.4 -327.2 -119.1C-326.3 -137.9 -304.6 -150.4 -294.8 -170.2C-284.9 -190 -286.9 -217 -271.5 -227.8C-256.1 -238.6 -223.3 -233.1 -205.9 -245.3C-188.4 -257.5 -186.3 -287.4 -171.9 -297.8C-157.6 -308.2 -131 -299 -111 -305C-91.1 -311.1 -77.9 -332.2 -60.5 -343C-43.1 -353.7 -21.5 -354 0 -354.4L0 0Z" fill="#312c4f"></path><path d="M-303.7 0C-284.9 -14.4 -266.1 -28.9 -265.2 -46.8C-264.3 -64.7 -281.3 -86 -280.5 -102.1C-279.7 -118.2 -261.1 -128.9 -252.7 -145.9C-244.2 -162.8 -245.9 -186 -232.7 -195.2C-219.5 -204.5 -191.4 -199.8 -176.4 -210.3C-161.5 -220.7 -159.7 -246.4 -147.4 -255.3C-135.1 -264.2 -112.2 -256.3 -95.2 -261.5C-78.1 -266.6 -66.7 -284.8 -51.8 -294C-36.9 -303.2 -18.5 -303.5 0 -303.7L0 0Z" fill="#623965"></path><path d="M-253.1 0C-237.4 -12 -221.7 -24 -221 -39C-220.2 -53.9 -234.4 -71.7 -233.7 -85.1C-233.1 -98.5 -217.6 -107.4 -210.6 -121.6C-203.5 -135.7 -204.9 -155 -193.9 -162.7C-182.9 -170.4 -159.5 -166.5 -147 -175.2C-134.6 -184 -133.1 -205.3 -122.8 -212.7C-112.6 -220.1 -93.5 -213.6 -79.3 -217.9C-65.1 -222.2 -55.6 -237.3 -43.2 -245C-30.8 -252.6 -15.4 -252.9 0 -253.1L0 0Z" fill="#96446e"></path><path d="M-202.5 0C-189.9 -9.6 -177.4 -19.2 -176.8 -31.2C-176.2 -43.1 -187.5 -57.4 -187 -68.1C-186.5 -78.8 -174.1 -85.9 -168.4 -97.3C-162.8 -108.6 -163.9 -124 -155.1 -130.2C-146.3 -136.3 -127.6 -133.2 -117.6 -140.2C-107.7 -147.2 -106.5 -164.2 -98.3 -170.2C-90 -176.1 -74.8 -170.9 -63.4 -174.3C-52.1 -177.7 -44.5 -189.8 -34.6 -196C-24.6 -202.1 -12.3 -202.3 0 -202.5L0 0Z" fill="#c55469"></path><path d="M-151.9 0C-142.5 -7.2 -133 -14.4 -132.6 -23.4C-132.1 -32.3 -140.6 -43 -140.2 -51C-139.9 -59.1 -130.6 -64.5 -126.3 -72.9C-122.1 -81.4 -122.9 -93 -116.3 -97.6C-109.7 -102.2 -95.7 -99.9 -88.2 -105.1C-80.7 -110.4 -79.8 -123.2 -73.7 -127.6C-67.5 -132.1 -56.1 -128.2 -47.6 -130.7C-39 -133.3 -33.4 -142.4 -25.9 -147C-18.5 -151.6 -9.2 -151.7 0 -151.9L0 0Z" fill="#e9705a"></path><path d="M-101.2 0C-95 -4.8 -88.7 -9.6 -88.4 -15.6C-88.1 -21.6 -93.8 -28.7 -93.5 -34C-93.2 -39.4 -87 -43 -84.2 -48.6C-81.4 -54.3 -82 -62 -77.6 -65.1C-73.2 -68.2 -63.8 -66.6 -58.8 -70.1C-53.8 -73.6 -53.2 -82.1 -49.1 -85.1C-45 -88.1 -37.4 -85.4 -31.7 -87.2C-26 -88.9 -22.2 -94.9 -17.3 -98C-12.3 -101.1 -6.2 -101.2 0 -101.2L0 0Z" fill="#fa9845"></path><path d="M-50.6 0C-47.5 -2.4 -44.3 -4.8 -44.2 -7.8C-44 -10.8 -46.9 -14.3 -46.7 -17C-46.6 -19.7 -43.5 -21.5 -42.1 -24.3C-40.7 -27.1 -41 -31 -38.8 -32.5C-36.6 -34.1 -31.9 -33.3 -29.4 -35C-26.9 -36.8 -26.6 -41.1 -24.6 -42.5C-22.5 -44 -18.7 -42.7 -15.9 -43.6C-13 -44.4 -11.1 -47.5 -8.6 -49C-6.2 -50.5 -3.1 -50.6 0 -50.6L0 0Z" fill="#fbae3c"></path></g><g transform="translate(0, 0)"><path d="M405 0C411.4 26.4 417.9 52.8 398.8 70.3C379.8 87.8 335.3 96.4 327 119C318.8 141.7 346.8 178.4 340.3 196.5C333.9 214.6 292.9 214.2 273.5 229.5C254.1 244.8 256.3 275.9 243 289.6C229.7 303.3 200.9 299.6 182.5 316.1C164.1 332.6 156 369.3 137.2 376.8C118.3 384.3 88.6 362.6 63.9 362.4C39.2 362.2 19.6 383.6 0 405L0 0Z" fill="#0c1c30"></path><path d="M354.4 0C360 23.1 365.7 46.2 349 61.5C332.3 76.8 293.4 84.3 286.1 104.1C278.9 124 303.5 156.1 297.8 171.9C292.1 187.8 256.3 187.4 239.3 200.8C222.3 214.2 224.2 241.4 212.6 253.4C201 265.4 175.8 262.1 159.7 276.6C143.6 291 136.5 323.2 120 329.7C103.5 336.3 77.5 317.3 55.9 317.1C34.3 317 17.2 335.7 0 354.4L0 0Z" fill="#312c4f"></path><path d="M303.8 0C308.6 19.8 313.4 39.6 299.1 52.7C284.8 65.9 251.4 72.3 245.3 89.3C239.1 106.2 260.1 133.8 255.3 147.4C250.4 161 219.7 160.6 205.1 172.1C190.6 183.6 192.2 206.9 182.2 217.2C172.3 227.4 150.7 224.7 136.9 237.1C123.1 249.5 117 277 102.9 282.6C88.7 288.2 66.4 271.9 47.9 271.8C29.4 271.7 14.7 287.7 0 303.8L0 0Z" fill="#623965"></path><path d="M253.1 0C257.2 16.5 261.2 33 249.3 44C237.4 54.9 209.5 60.2 204.4 74.4C199.2 88.5 216.8 111.5 212.7 122.8C208.7 134.1 183.1 133.9 170.9 143.4C158.8 153 160.2 172.4 151.9 181C143.6 189.5 125.6 187.2 114.1 197.6C102.6 207.9 97.5 230.8 85.7 235.5C73.9 240.2 55.4 226.6 39.9 226.5C24.5 226.4 12.3 239.8 0 253.1L0 0Z" fill="#96446e"></path><path d="M202.5 0C205.7 13.2 208.9 26.4 199.4 35.2C189.9 43.9 167.6 48.2 163.5 59.5C159.4 70.8 173.4 89.2 170.2 98.2C166.9 107.3 146.4 107.1 136.7 114.7C127 122.4 128.1 137.9 121.5 144.8C114.8 151.6 100.5 149.8 91.3 158C82 166.3 78 184.7 68.6 188.4C59.1 192.2 44.3 181.3 32 181.2C19.6 181.1 9.8 191.8 0 202.5L0 0Z" fill="#c55469"></path><path d="M151.9 0C154.3 9.9 156.7 19.8 149.6 26.4C142.4 32.9 125.7 36.1 122.6 44.6C119.5 53.1 130.1 66.9 127.6 73.7C125.2 80.5 109.8 80.3 102.6 86.1C95.3 91.8 96.1 103.4 91.1 108.6C86.1 113.7 75.3 112.3 68.4 118.5C61.5 124.7 58.5 138.5 51.4 141.3C44.4 144.1 33.2 136 24 135.9C14.7 135.8 7.4 143.9 0 151.9L0 0Z" fill="#e9705a"></path><path d="M101.3 0C102.9 6.6 104.5 13.2 99.7 17.6C94.9 22 83.8 24.1 81.8 29.8C79.7 35.4 86.7 44.6 85.1 49.1C83.5 53.7 73.2 53.5 68.4 57.4C63.5 61.2 64.1 69 60.7 72.4C57.4 75.8 50.2 74.9 45.6 79C41 83.2 39 92.3 34.3 94.2C29.6 96.1 22.1 90.6 16 90.6C9.8 90.6 4.9 95.9 0 101.3L0 0Z" fill="#fa9845"></path><path d="M50.6 0C51.4 3.3 52.2 6.6 49.9 8.8C47.5 11 41.9 12 40.9 14.9C39.8 17.7 43.4 22.3 42.5 24.6C41.7 26.8 36.6 26.8 34.2 28.7C31.8 30.6 32 34.5 30.4 36.2C28.7 37.9 25.1 37.4 22.8 39.5C20.5 41.6 19.5 46.2 17.1 47.1C14.8 48 11.1 45.3 8 45.3C4.9 45.3 2.5 48 0 50.6L0 0Z" fill="#fbae3c"></path></g></svg>