<?xml version="1.0" encoding="UTF-8"?>
<svg width="1200pt" height="1200pt" version="1.1" viewBox="0 0 1200 1200" xmlns="http://www.w3.org/2000/svg">
 <g fill="#cae4de">
  <path d="m391.5 877.12h-252.28c-12.223 0-22.129-9.9102-22.129-22.129v-252.28c0-12.219 9.9062-22.129 22.129-22.129h252.28c12.223 0 22.129 9.9102 22.129 22.129v252.28c0.003907 12.223-9.9062 22.129-22.129 22.129zm-230.15-44.258h208.02v-208.02h-208.02z"/>
  <path d="m727.89 877.12h-252.28c-12.223 0-22.129-9.9102-22.129-22.129v-252.28c0-12.219 9.9062-22.129 22.129-22.129h252.28c12.223 0 22.129 9.9102 22.129 22.129v252.28c0 12.223-9.9062 22.129-22.129 22.129zm-230.15-44.258h208.02v-208.02h-208.02z"/>
  <path d="m727.89 540.75h-252.28c-12.223 0-22.129-9.9102-22.129-22.129v-252.28c0-12.219 9.9062-22.129 22.129-22.129h252.28c12.223 0 22.129 9.9102 22.129 22.129v252.28c0 12.219-9.9062 22.129-22.129 22.129zm-230.15-44.262h208.02v-208.02h-208.02z"/>
  <path d="m1064.2 877.12h-252.28c-12.223 0-22.129-9.9102-22.129-22.129v-252.28c0-12.219 9.9062-22.129 22.129-22.129h252.28c12.223 0 22.129 9.9102 22.129 22.129v252.28c0 12.223-9.9102 22.129-22.129 22.129zm-230.15-44.258h208.02v-208.02h-208.02z"/>
  <path d="m559.71 414.64c-5.6602 0-11.32-2.1562-15.641-6.4727-8.6484-8.6367-8.6562-22.648-0.019531-31.297l42.023-42.07c4.1484-4.1523 9.7773-6.4883 15.648-6.4922h0.007812c5.8672 0 11.496 2.332 15.648 6.4805l42.016 42.016c8.6406 8.6406 8.6406 22.656 0 31.297s-22.656 8.6406-31.297 0l-26.359-26.359-26.375 26.406c-4.3164 4.3281-9.9844 6.4922-15.652 6.4922z"/>
  <path d="m601.75 793.01c-5.6523 0-11.309-2.1523-15.629-6.4609l-42.102-41.992c-8.6523-8.6289-8.6719-22.641-0.039063-31.297 8.6289-8.6562 22.641-8.6758 31.297-0.042968l26.461 26.395 26.418-26.387c8.6484-8.6367 22.66-8.6289 31.297 0.023438 8.6367 8.6484 8.625 22.66-0.019531 31.297l-42.047 41.992c-4.3164 4.3164-9.9766 6.4727-15.637 6.4727z"/>
  <path d="m938.16 793.01c-5.6641 0-11.324-2.1602-15.648-6.4805-8.6406-8.6406-8.6406-22.656 0-31.297l26.359-26.359-26.406-26.375c-8.6445-8.6367-8.6562-22.648-0.019532-31.297 8.6367-8.6445 22.648-8.6523 31.297-0.019531l42.07 42.023c4.1523 4.1484 6.4883 9.7773 6.4922 15.648 0 5.8711-2.332 11.504-6.4805 15.656l-42.016 42.016c-4.3203 4.3203-9.9805 6.4844-15.648 6.4844z"/>
  <path d="m265.36 793.01c-5.6602 0-11.32-2.1562-15.641-6.4727l-42.07-42.023c-4.1523-4.1484-6.4883-9.7773-6.4922-15.648-0.003906-5.8711 2.332-11.504 6.4805-15.656l42.016-42.016c8.6406-8.6406 22.656-8.6406 31.297 0s8.6406 22.656 0 31.297l-26.359 26.359 26.406 26.375c8.6445 8.6367 8.6562 22.648 0.019531 31.297-4.3203 4.3242-9.9883 6.4883-15.656 6.4883z"/>
 </g>
</svg>
